<svg viewBox="0 0 23.3333 18.6667" xmlns="http://www.w3.org/2000/svg" xmlns:xlink="http://www.w3.org/1999/xlink" width="23.333313" height="18.666687" fill="none" customFrame="#000000">
	<path id="Vector" d="M21.0001 9.33333L21.0001 3.5L23.3334 3.5L23.3334 10.5L21.0001 10.5M21.0001 15.1667L23.3334 15.1667L23.3334 12.8333L21.0001 12.8333M9.3334 10.5C12.4484 10.5 18.6667 12.0633 18.6667 15.1667L18.6667 18.6667L6.10352e-05 18.6667L6.10352e-05 15.1667C6.10352e-05 12.0633 6.21839 10.5 9.3334 10.5ZM9.3334 0C10.5711 1.03621e-15 11.7581 0.491665 12.6332 1.36683C13.5084 2.242 14.0001 3.42899 14.0001 4.66667C14.0001 5.90434 13.5084 7.09133 12.6332 7.9665C11.7581 8.84167 10.5711 9.33333 9.3334 9.33333C8.09572 9.33333 6.90873 8.84167 6.03356 7.9665C5.15839 7.09133 4.66673 5.90434 4.66673 4.66667C4.66673 3.42899 5.15839 2.242 6.03356 1.36683C6.90873 0.491665 8.09572 1.03621e-15 9.3334 0ZM9.3334 12.7167C5.86839 12.7167 2.21673 14.42 2.21673 15.1667L2.21673 16.45L16.4501 16.45L16.4501 15.1667C16.4501 14.42 12.7984 12.7167 9.3334 12.7167ZM9.3334 2.21667C8.68361 2.21667 8.06045 2.47479 7.60098 2.93425C7.14152 3.39372 6.88339 4.01689 6.88339 4.66667C6.88339 5.31645 7.14152 5.93961 7.60098 6.39908C8.06045 6.85854 8.68361 7.11667 9.3334 7.11667C9.98318 7.11667 10.6063 6.85854 11.0658 6.39908C11.5253 5.93961 11.7834 5.31645 11.7834 4.66667C11.7834 4.01689 11.5253 3.39372 11.0658 2.93425C10.6063 2.47479 9.98318 2.21667 9.3334 2.21667Z" fill="rgb(0,0,0)" fill-rule="nonzero" />
</svg>
