<svg viewBox="0 0 24.5301 22.0582" xmlns="http://www.w3.org/2000/svg" xmlns:xlink="http://www.w3.org/1999/xlink" width="24.530060" height="22.058228" fill="none" customFrame="#000000">
	<path id="Vector" d="M23.5621 15.6379L7.27894 15.6379L8.09651 13.9727L21.6809 13.948C22.1403 13.948 22.534 13.6199 22.616 13.166L24.4973 2.63594C24.5465 2.35977 24.4727 2.07539 24.2922 1.85938C24.203 1.75306 24.0918 1.66743 23.9662 1.60841C23.8406 1.54939 23.7036 1.51839 23.5649 1.51758L6.28362 1.46016L6.13597 0.765625C6.043 0.322656 5.64378 0 5.18987 0L0.965265 0C0.709269 7.77156e-16 0.463758 0.101694 0.282741 0.282711C0.101725 0.463727 3.05176e-05 0.709238 3.05176e-05 0.965235C3.05176e-05 1.22123 0.101725 1.46674 0.282741 1.64776C0.463758 1.82877 0.709269 1.93047 0.965265 1.93047L4.40784 1.93047L5.05316 4.99844L6.64183 12.6902L4.59651 16.0289C4.4903 16.1723 4.42632 16.3425 4.41183 16.5203C4.39733 16.6981 4.43289 16.8765 4.51448 17.0352C4.67855 17.3605 5.00941 17.5656 5.37581 17.5656L7.093 17.5656C6.72692 18.0519 6.52918 18.6441 6.52972 19.2527C6.52972 20.8004 7.78753 22.0582 9.33519 22.0582C10.8828 22.0582 12.1407 20.8004 12.1407 19.2527C12.1407 18.643 11.9383 18.0496 11.5774 17.5656L15.9825 17.5656C15.6164 18.0519 15.4186 18.6441 15.4192 19.2527C15.4192 20.8004 16.677 22.0582 18.2246 22.0582C19.7723 22.0582 21.0301 20.8004 21.0301 19.2527C21.0301 18.643 20.8278 18.0496 20.4668 17.5656L23.5649 17.5656C24.0953 17.5656 24.5301 17.1336 24.5301 16.6004C24.5285 16.3447 24.4259 16.0999 24.2445 15.9196C24.0632 15.7393 23.8179 15.638 23.5621 15.6379ZM6.68558 3.36328L22.4301 3.41523L20.8879 12.0504L8.52034 12.0723L6.68558 3.36328ZM9.33519 20.1168C8.8594 20.1168 8.47112 19.7285 8.47112 19.2527C8.47112 18.777 8.8594 18.3887 9.33519 18.3887C9.81097 18.3887 10.1992 18.777 10.1992 19.2527C10.1992 19.4819 10.1082 19.7017 9.94617 19.8637C9.78413 20.0258 9.56435 20.1168 9.33519 20.1168ZM18.2246 20.1168C17.7489 20.1168 17.3606 19.7285 17.3606 19.2527C17.3606 18.777 17.7489 18.3887 18.2246 18.3887C18.7004 18.3887 19.0887 18.777 19.0887 19.2527C19.0887 19.4819 18.9977 19.7017 18.8356 19.8637C18.6736 20.0258 18.4538 20.1168 18.2246 20.1168Z" fill="rgb(0,0,0)" fill-rule="nonzero" />
</svg>
